<svg width="2183" height="1851" viewBox="0 0 2183 1851" fill="none" xmlns="http://www.w3.org/2000/svg">
<path d="M1710 661.752C1710 322.712 1433.07 47.8689 1091.47 47.8689C749.858 47.8689 472.928 322.712 472.928 661.752C472.928 1000.81 749.858 1275.65 1091.47 1275.65C1433.07 1275.65 1710 1000.81 1710 661.752V661.752Z" fill="#6FC0D9"/>
<g clip-path="url(#clip0)">
<path d="M1457.21 594.976C1438.16 426.56 1303.83 293.219 1135 275.688L938.595 115C892.295 161.3 930.082 249.572 958.899 301.201C953.739 303.335 948.663 305.638 943.623 307.989L847.972 228.278C836.518 285.502 853.989 325.327 874.076 350.792C799.586 409.186 748.379 495.938 737.178 594.964C667.222 644.158 621.392 725.34 621.392 817.349C621.392 954.343 722.806 1067.34 854.592 1086.17C918.869 1144.22 1003.75 1179.86 1097.18 1179.86C1190.62 1179.86 1275.51 1144.22 1339.79 1086.17C1471.56 1067.34 1572.98 954.343 1572.98 817.349C1572.99 725.352 1527.16 644.17 1457.21 594.976V594.976Z" fill="white"/>
<path d="M1155.26 1069.71C1188.76 1069.71 1219.03 1049.56 1232.24 1018.49L1267.99 934.316C1274.32 919.401 1271.07 902.111 1259.78 890.572L1255.1 885.774C1228.17 858.247 1208.05 825.27 1190.23 791.003C1171.29 754.554 1128.11 726.738 1085.87 726.738C1043.65 726.738 1000.46 754.566 981.506 791.003C960.153 832.095 938.534 873.053 910.525 909.864C900.216 923.416 899.601 942.081 908.994 956.297L959.056 1032.09C974.586 1055.6 1000.74 1069.72 1028.73 1069.72H1155.26V1069.71Z" fill="#FC8C29"/>
<path d="M1099.81 1026.4H1089.89C1061.49 1026.4 1034.72 1016.5 1014.45 998.509C1000.21 985.885 982.58 975.986 963.493 969.885C927.827 958.491 903.58 928.541 903.11 895.371C902.965 883.748 912.262 874.175 923.897 874.006H924.198C935.701 874.006 945.093 883.254 945.25 894.793C945.467 909.816 957.947 923.875 976.298 929.735C1000.95 937.572 1023.82 950.485 1042.43 966.979C1054.8 977.952 1072.09 984.245 1089.89 984.245H1099.82C1117.62 984.245 1134.91 977.952 1147.27 966.979C1165.92 950.449 1188.78 937.572 1213.43 929.71C1231.54 923.923 1243.7 910.612 1244.43 895.781C1244.99 884.134 1254.7 874.922 1266.5 875.754C1278.12 876.333 1287.09 886.208 1286.53 897.831C1284.93 930.41 1261.27 958.684 1226.23 969.861C1207.13 975.95 1189.52 985.873 1175.25 998.509C1154.99 1016.5 1128.2 1026.4 1099.81 1026.4V1026.4Z" fill="#2C3436"/>
<path d="M1315.18 705.216C1303.53 705.216 1294.1 695.799 1294.1 684.152C1294.1 665.403 1278.85 650.15 1260.09 650.15C1241.34 650.15 1226.09 665.403 1226.09 684.152C1226.09 695.799 1216.65 705.216 1205.01 705.216C1193.38 705.216 1183.94 695.799 1183.94 684.152C1183.94 642.168 1218.09 608.01 1260.09 608.01C1302.07 608.01 1336.24 642.168 1336.24 684.152C1336.24 695.799 1326.81 705.216 1315.18 705.216Z" fill="#2C3436"/>
<path d="M947.975 705.216C936.34 705.216 926.899 695.799 926.899 684.152C926.899 665.403 911.647 650.15 892.898 650.15C874.148 650.15 858.896 665.403 858.896 684.152C858.896 695.799 849.455 705.216 837.82 705.216C826.185 705.216 816.756 695.799 816.756 684.152C816.756 642.168 850.902 608.01 892.898 608.01C934.893 608.01 969.051 642.168 969.051 684.152C969.051 695.799 959.61 705.216 947.975 705.216Z" fill="#2C3436"/>
</g>
<path d="M189 1423C210.333 1423 229.167 1428.17 245.5 1438.5C261.833 1448.83 274.5 1463.67 283.5 1483C292.833 1502 297.5 1524.17 297.5 1549.5C297.5 1574.83 292.833 1597.33 283.5 1617C274.5 1636.67 261.667 1652 245 1663C228.667 1673.67 210 1679 189 1679C172.667 1679 157.667 1675.67 144 1669C130.667 1662.33 120.5 1653.17 113.5 1641.5C112.5 1652.83 108 1661.83 100 1668.5C92.3333 1674.83 82.1667 1678 69.5 1678C56.1667 1678 45.5 1674.33 37.5 1667C29.8333 1659.33 26 1649.33 26 1637V1360C26 1348.33 30.1667 1338.83 38.5 1331.5C46.8333 1323.83 57.8333 1320 71.5 1320C84.5 1320 95 1323.5 103 1330.5C111 1337.5 115 1346.83 115 1358.5V1458C122.333 1447.33 132.5 1438.83 145.5 1432.5C158.833 1426.17 173.333 1423 189 1423ZM161.5 1612.5C176.833 1612.5 188.667 1607.17 197 1596.5C205.333 1585.5 209.5 1569.83 209.5 1549.5C209.5 1530.17 205.333 1515.33 197 1505C189 1494.67 177.333 1489.5 162 1489.5C146.333 1489.5 134.333 1494.83 126 1505.5C117.667 1515.83 113.5 1530.83 113.5 1550.5C113.5 1570.5 117.667 1585.83 126 1596.5C134.333 1607.17 146.167 1612.5 161.5 1612.5ZM383 1678C370.333 1678 359.667 1674.67 351 1668C342.667 1661 338.5 1650.67 338.5 1637V1465C338.5 1451.33 342.667 1441.17 351 1434.5C359.667 1427.5 370.333 1424 383 1424C395.667 1424 406.167 1427.5 414.5 1434.5C423.167 1441.17 427.5 1451.33 427.5 1465V1637C427.5 1650.67 423.167 1661 414.5 1668C406.167 1674.67 395.667 1678 383 1678ZM383 1389C368 1389 356 1385.17 347 1377.5C338.333 1369.5 334 1359 334 1346C334 1333 338.333 1322.67 347 1315C356 1307.33 368 1303.5 383 1303.5C397.667 1303.5 409.5 1307.33 418.5 1315C427.5 1322.67 432 1333 432 1346C432 1359 427.5 1369.5 418.5 1377.5C409.833 1385.17 398 1389 383 1389ZM644.625 1423C673.958 1423 695.792 1431.83 710.125 1449.5C724.458 1466.83 731.625 1493.33 731.625 1529V1637C731.625 1649.67 727.625 1659.67 719.625 1667C711.625 1674.33 700.792 1678 687.125 1678C673.458 1678 662.625 1674.33 654.625 1667C646.625 1659.67 642.625 1649.67 642.625 1637V1533C642.625 1518.33 639.958 1507.67 634.625 1501C629.625 1494.33 621.958 1491 611.625 1491C598.292 1491 587.625 1495.33 579.625 1504C571.958 1512.33 568.125 1523.67 568.125 1538V1637C568.125 1649.67 564.125 1659.67 556.125 1667C548.125 1674.33 537.292 1678 523.625 1678C509.958 1678 499.125 1674.33 491.125 1667C483.125 1659.67 479.125 1649.67 479.125 1637V1464C479.125 1452.33 483.292 1442.83 491.625 1435.5C499.958 1427.83 510.792 1424 524.125 1424C536.792 1424 546.792 1427.5 554.125 1434.5C561.792 1441.5 565.625 1450.67 565.625 1462C574.292 1449.33 585.458 1439.67 599.125 1433C612.792 1426.33 627.958 1423 644.625 1423ZM1000.36 1424C1013.69 1424 1024.36 1427.83 1032.36 1435.5C1040.36 1442.83 1044.36 1452.67 1044.36 1465V1645C1044.36 1685.67 1032.03 1716.5 1007.36 1737.5C983.026 1758.5 947.193 1769 899.859 1769C881.526 1769 864.193 1767.33 847.859 1764C831.526 1760.67 817.693 1755.83 806.359 1749.5C800.359 1746.17 795.526 1741.83 791.859 1736.5C788.526 1731.17 786.859 1725.17 786.859 1718.5C786.859 1708.83 789.193 1701 793.859 1695C798.859 1689 805.193 1686 812.859 1686C818.859 1686 829.693 1688.5 845.359 1693.5C855.693 1696.83 864.859 1699.33 872.859 1701C880.859 1703 889.026 1704 897.359 1704C917.693 1704 932.526 1699.67 941.859 1691C951.526 1682.67 956.359 1669.33 956.359 1651V1632C949.026 1643 938.526 1651.83 924.859 1658.5C911.193 1664.83 896.359 1668 880.359 1668C859.026 1668 840.026 1663 823.359 1653C806.693 1643 793.693 1628.83 784.359 1610.5C775.026 1591.83 770.359 1570.33 770.359 1546C770.359 1521.67 775.026 1500.17 784.359 1481.5C793.693 1462.83 806.693 1448.5 823.359 1438.5C840.026 1428.17 859.026 1423 880.359 1423C896.693 1423 911.693 1426.33 925.359 1433C939.026 1439.67 949.526 1448.83 956.859 1460.5C957.526 1449.17 961.693 1440.33 969.359 1434C977.359 1427.33 987.693 1424 1000.36 1424ZM907.359 1601.5C923.026 1601.5 935.193 1596.67 943.859 1587C952.526 1577.33 956.859 1563.67 956.859 1546C956.859 1528.33 952.526 1514.5 943.859 1504.5C935.193 1494.5 923.026 1489.5 907.359 1489.5C892.026 1489.5 880.026 1494.5 871.359 1504.5C862.693 1514.17 858.359 1528 858.359 1546C858.359 1563.33 862.693 1577 871.359 1587C880.359 1596.67 892.359 1601.5 907.359 1601.5Z" fill="#6FC0D9"/>
<path d="M1220.31 1679C1193.31 1679 1169.48 1673.83 1148.81 1663.5C1128.48 1652.83 1112.65 1637.83 1101.31 1618.5C1090.31 1599.17 1084.81 1576.5 1084.81 1550.5C1084.81 1524.5 1090.31 1502 1101.31 1483C1112.65 1463.67 1128.48 1448.83 1148.81 1438.5C1169.15 1428.17 1192.98 1423 1220.31 1423C1247.65 1423 1271.48 1428.17 1291.81 1438.5C1312.15 1448.83 1327.81 1463.67 1338.81 1483C1350.15 1502 1355.81 1524.5 1355.81 1550.5C1355.81 1576.5 1350.15 1599.17 1338.81 1618.5C1327.81 1637.83 1312.15 1652.83 1291.81 1663.5C1271.48 1673.83 1247.65 1679 1220.31 1679ZM1220.31 1612.5C1251.98 1612.5 1267.81 1591.83 1267.81 1550.5C1267.81 1509.17 1251.98 1488.5 1220.31 1488.5C1188.65 1488.5 1172.81 1509.17 1172.81 1550.5C1172.81 1591.83 1188.65 1612.5 1220.31 1612.5ZM1520.12 1679C1493.12 1679 1469.28 1673.83 1448.62 1663.5C1428.28 1652.83 1412.45 1637.83 1401.12 1618.5C1390.12 1599.17 1384.62 1576.5 1384.62 1550.5C1384.62 1524.5 1390.12 1502 1401.12 1483C1412.45 1463.67 1428.28 1448.83 1448.62 1438.5C1468.95 1428.17 1492.78 1423 1520.12 1423C1547.45 1423 1571.28 1428.17 1591.62 1438.5C1611.95 1448.83 1627.62 1463.67 1638.62 1483C1649.95 1502 1655.62 1524.5 1655.62 1550.5C1655.62 1576.5 1649.95 1599.17 1638.62 1618.5C1627.62 1637.83 1611.95 1652.83 1591.62 1663.5C1571.28 1673.83 1547.45 1679 1520.12 1679ZM1520.12 1612.5C1551.78 1612.5 1567.62 1591.83 1567.62 1550.5C1567.62 1509.17 1551.78 1488.5 1520.12 1488.5C1488.45 1488.5 1472.62 1509.17 1472.62 1550.5C1472.62 1591.83 1488.45 1612.5 1520.12 1612.5ZM1792.92 1679C1770.59 1679 1751.76 1677.33 1736.42 1674C1721.09 1670.67 1707.59 1665.33 1695.92 1658C1691.26 1655.67 1687.59 1651.67 1684.92 1646C1682.26 1640.33 1680.92 1634 1680.92 1627C1680.92 1618 1683.26 1610.67 1687.92 1605C1692.92 1599 1699.09 1596 1706.42 1596C1711.42 1596 1716.09 1596.67 1720.42 1598C1724.76 1599 1730.09 1600.83 1736.42 1603.5C1747.09 1607.17 1756.42 1610 1764.42 1612C1772.76 1614 1783.26 1615 1795.92 1615C1804.92 1615 1811.92 1613.83 1816.92 1611.5C1822.26 1608.83 1824.92 1605.17 1824.92 1600.5C1824.92 1596.83 1823.59 1594 1820.92 1592C1818.59 1590 1813.92 1588.17 1806.92 1586.5C1799.92 1584.5 1788.09 1581.83 1771.42 1578.5C1741.76 1572.83 1720.26 1564.33 1706.92 1553C1693.92 1541.33 1687.42 1525 1687.42 1504C1687.42 1488.67 1692.09 1474.83 1701.42 1462.5C1711.09 1450.17 1724.26 1440.5 1740.92 1433.5C1757.59 1426.5 1776.26 1423 1796.92 1423C1811.92 1423 1826.42 1424.83 1840.42 1428.5C1854.76 1432.17 1867.42 1437.33 1878.42 1444C1888.76 1450 1893.92 1459.67 1893.92 1473C1893.92 1482.33 1891.42 1490.17 1886.42 1496.5C1881.42 1502.83 1875.26 1506 1867.92 1506C1859.26 1506 1848.92 1503.17 1836.92 1497.5C1828.92 1493.83 1821.76 1491.17 1815.42 1489.5C1809.42 1487.5 1802.26 1486.5 1793.92 1486.5C1785.59 1486.5 1779.09 1487.83 1774.42 1490.5C1769.76 1492.83 1767.42 1496.33 1767.42 1501C1767.42 1506.33 1770.59 1510.5 1776.92 1513.5C1783.59 1516.5 1796.59 1519.83 1815.92 1523.5C1848.26 1529.17 1871.09 1537.83 1884.42 1549.5C1897.76 1560.83 1904.42 1577.33 1904.42 1599C1904.42 1623.33 1894.26 1642.83 1873.92 1657.5C1853.92 1671.83 1826.92 1679 1792.92 1679ZM2141.04 1596C2148.71 1596 2154.87 1599 2159.54 1605C2164.54 1611 2167.04 1618.83 2167.04 1628.5C2167.04 1641.83 2160.54 1652 2147.54 1659C2136.21 1664.67 2122.71 1669.5 2107.04 1673.5C2091.71 1677.17 2077.54 1679 2064.54 1679C2037.21 1679 2013.37 1673.83 1993.04 1663.5C1972.71 1653.17 1957.04 1638.33 1946.04 1619C1935.04 1599.67 1929.54 1577 1929.54 1551C1929.54 1526.33 1934.71 1504.33 1945.04 1485C1955.71 1465.33 1970.37 1450.17 1989.04 1439.5C2008.04 1428.5 2029.37 1423 2053.04 1423C2076.04 1423 2096.21 1428 2113.54 1438C2130.87 1448 2144.21 1462.17 2153.54 1480.5C2163.21 1498.83 2168.04 1520.33 2168.04 1545C2168.04 1552.67 2166.21 1558.67 2162.54 1563C2159.21 1567 2154.21 1569 2147.54 1569H2015.54C2017.87 1585 2023.04 1596.5 2031.04 1603.5C2039.04 1610.5 2050.87 1614 2066.54 1614C2074.87 1614 2082.54 1613.17 2089.54 1611.5C2096.54 1609.5 2104.37 1606.83 2113.04 1603.5C2118.04 1601.5 2122.87 1599.83 2127.54 1598.5C2132.54 1596.83 2137.04 1596 2141.04 1596ZM2055.54 1483C2043.87 1483 2034.54 1486.83 2027.54 1494.5C2020.54 1501.83 2016.37 1512.67 2015.04 1527H2093.54C2091.54 1497.67 2078.87 1483 2055.54 1483Z" fill="#FC8C29"/>
<defs>
<clipPath id="clip0">
<rect width="1237.07" height="1237.07" fill="white" transform="translate(357)"/>
</clipPath>
</defs>
</svg>
