<?xml version="1.0" standalone="no"?>
<!DOCTYPE svg PUBLIC "-//W3C//DTD SVG 20010904//EN"
 "http://www.w3.org/TR/2001/REC-SVG-20010904/DTD/svg10.dtd">
<svg version="1.0" xmlns="http://www.w3.org/2000/svg"
 width="1310.000000pt" height="1310.000000pt" viewBox="0 0 1310.000000 1310.000000"
 preserveAspectRatio="xMidYMid meet">
<metadata>
Created by potrace 1.11, written by Peter Selinger 2001-2013
</metadata>
<g transform="translate(0.000000,1310.000000) scale(0.100000,-0.100000)"
fill="#000000" stroke="none">
<path d="M6229 13036 c-2 -2 -51 -7 -109 -10 -58 -4 -125 -8 -149 -11 -138
-12 -183 -17 -246 -26 -38 -6 -90 -12 -115 -15 -25 -2 -81 -11 -125 -19 -44
-8 -96 -17 -115 -20 -134 -21 -495 -106 -658 -155 -37 -10 -71 -20 -77 -21
-14 -3 -273 -91 -385 -132 -87 -31 -394 -159 -430 -178 -8 -4 -85 -42 -170
-83 -318 -155 -568 -303 -871 -516 -137 -96 -150 -105 -262 -193 -234 -184
-386 -318 -601 -532 -78 -77 -175 -178 -216 -224 -41 -45 -86 -95 -100 -111
-14 -15 -38 -45 -55 -66 -16 -21 -37 -45 -46 -53 -8 -9 -39 -47 -69 -86 -30
-38 -57 -72 -60 -75 -15 -13 -185 -249 -266 -370 -413 -617 -702 -1262 -894
-1995 -29 -112 -56 -226 -66 -285 -2 -14 -9 -45 -14 -70 -16 -76 -39 -212 -45
-265 -3 -27 -8 -57 -11 -66 -2 -9 -7 -36 -9 -59 -2 -24 -7 -59 -9 -79 -3 -20
-8 -63 -11 -96 -4 -33 -8 -76 -10 -95 -27 -260 -27 -1008 0 -1172 2 -13 6 -52
10 -88 8 -85 13 -129 26 -220 6 -41 13 -91 15 -110 10 -68 56 -306 80 -415 14
-60 27 -119 29 -130 3 -11 21 -78 41 -150 19 -71 37 -137 39 -145 2 -8 4 -15
5 -15 1 0 3 -7 5 -15 1 -8 28 -91 60 -185 148 -440 333 -842 577 -1253 81
-136 120 -198 138 -219 5 -7 10 -15 10 -18 0 -18 352 -498 400 -545 3 -3 21
-25 41 -50 20 -25 47 -56 59 -70 12 -14 49 -56 83 -95 124 -143 519 -528 649
-633 18 -15 42 -35 53 -44 228 -194 703 -524 935 -649 25 -13 47 -26 50 -29
12 -14 386 -203 510 -258 81 -36 292 -124 359 -149 232 -88 702 -230 882 -267
13 -3 33 -7 44 -9 161 -37 405 -79 595 -102 25 -3 59 -8 75 -10 17 -2 66 -7
110 -10 44 -4 94 -8 110 -10 171 -24 854 -24 1065 0 19 2 71 7 115 10 44 4 88
9 97 10 9 2 43 6 75 10 32 3 69 7 83 10 14 2 43 7 65 10 22 3 65 10 95 15 30
5 71 12 90 15 84 13 244 47 430 90 260 61 705 208 922 304 26 12 50 21 52 21
2 0 30 12 62 27 33 15 61 27 64 28 74 23 462 224 654 339 66 39 131 78 145 86
108 64 381 253 511 355 170 132 194 151 294 239 131 113 179 158 366 346 197
198 221 223 320 340 30 36 57 67 60 70 5 4 81 99 195 245 17 22 65 87 107 145
559 782 945 1696 1108 2625 5 33 12 69 14 80 2 11 7 42 10 68 4 27 9 56 11 65
1 10 6 46 10 82 4 36 9 74 11 85 2 11 6 52 9 90 3 39 8 79 10 90 26 131 26
981 1 1135 -3 14 -7 63 -11 110 -3 47 -8 94 -10 105 -2 11 -7 43 -10 70 -4 28
-9 66 -11 85 -2 19 -9 60 -14 90 -5 30 -11 71 -14 90 -14 91 -67 335 -107 495
-69 276 -198 661 -306 910 -19 44 -44 103 -56 130 -25 59 -221 447 -262 520
-157 277 -423 671 -587 870 -91 110 -184 222 -192 231 -6 6 -44 48 -85 93
-137 152 -373 384 -520 511 -35 30 -69 60 -75 65 -11 10 -104 86 -139 115 -11
8 -24 20 -31 25 -6 6 -38 31 -71 55 -33 25 -62 48 -65 51 -3 4 -23 19 -46 35
-23 16 -83 59 -135 96 -114 80 -387 256 -449 289 -25 13 -52 28 -60 35 -34 25
-538 284 -554 284 -2 0 -34 14 -70 30 -189 88 -595 233 -836 300 -63 17 -137
38 -165 45 -75 21 -207 51 -325 75 -58 11 -116 22 -130 25 -35 7 -149 26 -185
30 -16 2 -48 7 -70 10 -77 12 -90 14 -145 20 -30 3 -71 8 -90 10 -19 2 -69 7
-110 10 -41 4 -91 9 -110 11 -44 6 -795 15 -801 10z"/>
</g>
</svg>
